<svg xmlns="http://www.w3.org/2000/svg" enable-background="new 0 0 512 512" viewBox="0 0 512 512"><linearGradient id="a" x1="255.531" x2="255.531" y1="117.176" y2="406.065" gradientUnits="userSpaceOnUse"><stop offset="0" stop-color="#ea8928"/><stop offset="1" stop-color="#cf2b8f"/></linearGradient><path fill="url(#a)" d="M326.1,104.1H185c-47.9,0-86.9,39-86.9,86.9v141c0,47.9,39,86.9,86.9,86.9h141
		c47.9,0,86.9-39,86.9-86.9V191C412.9,143.1,374,104.1,326.1,104.1z M385,332.1c0,32.5-26.4,58.9-58.9,58.9H185
		c-32.5,0-58.9-26.4-58.9-58.9V191c0-32.5,26.4-58.9,58.9-58.9h141c32.5,0,58.9,26.4,58.9,58.9L385,332.1L385,332.1z"/><linearGradient id="b" x1="255.531" x2="255.531" y1="117.176" y2="406.065" gradientUnits="userSpaceOnUse"><stop offset="0" stop-color="#ea8928"/><stop offset="1" stop-color="#cf2b8f"/></linearGradient><path fill="url(#b)" d="M255.5,180.4c-44.7,0-81.1,36.4-81.1,81.1c0,44.7,36.4,81.1,81.1,81.1s81.1-36.4,81.1-81.1
		C336.6,216.8,300.3,180.4,255.5,180.4z M255.5,314.7c-29.3,0-53.2-23.9-53.2-53.2c0-29.3,23.9-53.2,53.2-53.2s53.2,23.9,53.2,53.2
		C308.7,290.9,284.9,314.7,255.5,314.7z"/><linearGradient id="c" x1="340.043" x2="340.043" y1="117.176" y2="406.065" gradientUnits="userSpaceOnUse"><stop offset="0" stop-color="#ea8928"/><stop offset="1" stop-color="#cf2b8f"/></linearGradient><path fill="url(#c)" d="M340,156.7c-5.4,0-10.7,2.2-14.5,6c-3.8,3.8-6,9.1-6,14.5c0,5.4,2.2,10.7,6,14.5
		c3.8,3.8,9.1,6,14.5,6c5.4,0,10.7-2.2,14.5-6c3.8-3.8,6-9.1,6-14.5c0-5.4-2.2-10.7-6-14.5C350.7,158.9,345.4,156.7,340,156.7z"/></svg>